#N canvas -7 0 681 308 12;
#X obj 65 112 print;
#X obj 125 113 route /numbers;
#X obj 65 75 dumpOSC 8000;
#X obj 234 109 route /mouse;
#X text 164 75 Conection to port for processing;
#X obj 125 165 f;
#X obj 125 204 osc~;
#X obj 125 235 *~;
#X obj 345 135 sel 1;
#X obj 126 270 dac~;
#X obj 345 112 tgl 15 0 empty empty empty 17 7 0 10 -262144 -1 -1 0
1;
#X floatatom 125 141 5 0 0 0 - - -;
#X msg 345 162 0.25;
#X msg 377 163 0;
#X connect 1 0 11 0;
#X connect 2 0 1 0;
#X connect 2 0 0 0;
#X connect 2 0 3 0;
#X connect 5 0 6 0;
#X connect 6 0 7 0;
#X connect 7 0 9 0;
#X connect 7 0 9 1;
#X connect 8 0 12 0;
#X connect 8 1 13 0;
#X connect 10 0 8 0;
#X connect 11 0 5 0;
#X connect 12 0 7 1;
#X connect 13 0 7 1;
