#N canvas -8 -8 1366 677 12;
#X obj 524 21 print;
#X obj 584 29 dumpOSC 8000;
#X text 683 29 Conection to port for processing;
#X obj 28 399 osc~;
#X obj 28 430 *~;
#X obj 29 465 dac~;
#X floatatom 28 304 5 0 0 0 - - -;
#X obj 73 123 bng 15 250 50 0 empty empty empty 17 7 0 10 -159808 -1
-1;
#X floatatom 140 305 5 0 0 0 - - -;
#X obj 140 92 route /mouseY;
#X obj 28 91 route /mouseX;
#X floatatom 28 337 5 0 0 0 - - -;
#X obj 73 146 tgl 15 0 empty empty empty 17 7 0 10 -4034 -1 -1 0 63
;
#X obj 73 198 bng 15 250 50 0 empty empty empty 17 7 0 10 -159808 -1
-1;
#X obj 73 220 f;
#X obj 111 221 + 1;
#X obj 73 244 mod 2;
#X obj 73 170 metro 50;
#N canvas 423 19 384 231 on/off 0;
#X obj 41 112 outlet;
#X obj 41 53 sel 1;
#X msg 41 80 0.25;
#X msg 73 80 0;
#X obj 41 -64 key;
#X floatatom 41 -11 5 0 0 0 - - -;
#X obj 80 -37 bng 15 250 50 0 empty empty empty 17 7 0 10 -159808 -1
-1;
#X obj 41 20 ==;
#X msg 80 -11 109;
#X connect 1 0 2 0;
#X connect 1 1 3 0;
#X connect 2 0 0 0;
#X connect 3 0 0 0;
#X connect 4 0 5 0;
#X connect 4 0 6 0;
#X connect 5 0 7 0;
#X connect 6 0 8 0;
#X connect 7 0 1 0;
#X connect 8 0 7 1;
#X restore 78 401 pd on/off;
#X obj 73 268 sel 0 1;
#X obj 260 91 route /Bubbles;
#X obj 260 118 bng 15 250 50 0 empty empty empty 17 7 0 10 -159808
-1 -1;
#X obj 260 141 tgl 15 0 empty empty empty 17 7 0 10 -4034 -1 -1 0 63
;
#X obj 260 165 metro 200;
#X obj 310 228 delay 5;
#X obj 310 262 bng 15 250 50 0 empty empty empty 17 7 0 10 -159808
-1 -1;
#X msg 310 298 0.5 100;
#X obj 382 299 delay 100;
#X obj 382 334 bng 15 250 50 0 empty empty empty 17 7 0 10 -159808
-1 -1;
#X obj 260 389 line;
#X floatatom 260 418 5 0 0 0 - - -;
#X obj 264 449 *~;
#X obj 182 295 noise~;
#X obj 263 479 *~ -1;
#X obj 260 196 bng 15 250 50 0 empty empty empty 17 7 0 10 -159808
-1 -1;
#X msg 260 227 1 5;
#X msg 382 362 0 150;
#X obj 263 514 dac~;
#N canvas 772 106 450 300 timer 0;
#X obj 91 65 metro 1000;
#X obj 91 166 ==;
#X obj 91 112 f;
#X obj 130 112 + 1;
#X obj 91 91 bng 15 250 50 0 empty empty empty 17 7 0 10 -159808 -1
-1;
#X msg 56 65 0;
#X floatatom 91 139 5 0 0 0 - - -;
#X obj 91 195 sel 1;
#X obj 56 31 inlet;
#X obj 91 32 inlet;
#X obj 91 226 outlet;
#X msg 173 65 28;
#X connect 0 0 4 0;
#X connect 1 0 7 0;
#X connect 2 0 3 0;
#X connect 2 0 6 0;
#X connect 3 0 2 1;
#X connect 4 0 2 0;
#X connect 5 0 2 0;
#X connect 6 0 1 0;
#X connect 7 0 10 0;
#X connect 8 0 5 0;
#X connect 8 0 11 0;
#X connect 9 0 0 0;
#X connect 11 0 1 1;
#X restore 339 165 pd timer;
#X obj 28 368 * 0.25;
#X obj 490 386 *~ 0.5;
#X obj 490 423 dac~;
#N canvas 567 39 450 527 note 0;
#X obj 105 347 *~;
#X obj 104 73 t f b;
#X obj 104 44 mtof;
#X obj 136 193 line~;
#X obj 137 256 *~;
#X obj 136 226 *~;
#X obj 214 134 del 10;
#X obj 136 135 pack 1 3;
#X obj 214 162 pack 0 500;
#X obj 136 104 bng 15 250 50 0 empty empty empty 17 7 0 10 -262144
-1 -1;
#X obj 104 283 *~;
#X obj 105 313 osc~ 40;
#X obj 86 382 +~;
#X obj 84 409 osc~;
#X obj 84 447 *~;
#X obj 104 14 inlet;
#X obj 85 480 outlet~;
#X connect 0 0 12 1;
#X connect 1 0 10 0;
#X connect 1 0 12 0;
#X connect 1 1 9 0;
#X connect 2 0 1 0;
#X connect 3 0 5 0;
#X connect 3 0 5 1;
#X connect 4 0 10 1;
#X connect 4 0 14 1;
#X connect 5 0 4 0;
#X connect 5 0 4 1;
#X connect 6 0 8 0;
#X connect 7 0 3 0;
#X connect 8 0 3 0;
#X connect 9 0 7 0;
#X connect 9 0 6 0;
#X connect 10 0 11 0;
#X connect 11 0 0 0;
#X connect 12 0 13 0;
#X connect 13 0 14 0;
#X connect 14 0 16 0;
#X connect 15 0 2 0;
#X restore 491 350 pd note;
#X obj 466 126 bng 15 250 50 0 empty empty empty 17 7 0 10 -159808
-1 -1;
#X msg 466 308 90;
#X msg 503 308 100;
#X msg 526 308 105;
#X obj 466 93 route /Ocean;
#X obj 466 150 tgl 15 0 empty empty empty 17 7 0 10 -4034 -1 -1 0 63
;
#X obj 466 202 bng 15 250 50 0 empty empty empty 17 7 0 10 -159808
-1 -1;
#X obj 466 224 f;
#X obj 504 225 + 1;
#X obj 466 278 sel 0 1 2 3;
#X obj 466 248 mod 4;
#X obj 466 174 metro 350;
#X msg 484 308 95;
#X obj 591 292 bng 15 250 50 0 empty empty empty 17 7 0 10 -159808
-1 -1;
#X obj 591 232 tgl 15 0 empty empty empty 17 7 0 10 -4034 -1 -1 0 1
;
#X obj 591 208 bng 15 250 50 0 empty empty empty 17 7 0 10 -159808
-1 -1;
#X obj 591 262 metro 180;
#X obj 636 323 + 1;
#X obj 591 324 f;
#X floatatom 591 463 5 0 0 0 - - -;
#X obj 759 395 sel 0;
#X msg 759 429 0;
#X msg 591 492 \$1 20;
#X obj 591 525 line 0 3;
#X obj 591 556 mtof;
#X obj 590 653 samphold~;
#X obj 681 653 samphold~;
#X obj 589 693 dac~;
#X obj 835 338 random 98;
#X obj 915 337 random 98;
#X obj 835 369 + 30;
#X obj 915 368 + 30;
#X floatatom 835 397 5 0 0 0 - - -;
#X floatatom 915 399 5 0 0 0 - - -;
#X msg 835 429 \$1 180;
#X msg 915 428 \$1 50;
#X obj 835 461 line 0 3;
#X obj 915 462 line 0 3;
#X obj 835 491 mtof;
#X obj 915 493 mtof;
#X obj 835 521 phasor~;
#X obj 915 520 phasor~;
#X obj 590 619 *~;
#X obj 591 585 osc~ 200;
#X msg 591 429 100;
#X msg 614 429 220;
#X msg 637 429 40;
#X msg 660 429 450;
#X msg 683 429 500;
#X msg 711 429 50;
#X msg 728 429 360;
#X msg 791 429 0.05;
#X obj 591 357 mod 6;
#X obj 591 396 sel 0 1 2 4 5 7;
#X obj 591 94 route /Battery;
#N canvas 772 106 450 300 timer2 0;
#X obj 91 65 metro 1000;
#X obj 91 166 ==;
#X obj 91 112 f;
#X obj 130 112 + 1;
#X obj 91 91 bng 15 250 50 0 empty empty empty 17 7 0 10 -159808 -1
-1;
#X msg 56 65 0;
#X floatatom 91 139 5 0 0 0 - - -;
#X obj 91 195 sel 1;
#X obj 56 31 inlet;
#X obj 91 32 inlet;
#X obj 91 226 outlet;
#X msg 173 65 4;
#X connect 0 0 4 0;
#X connect 1 0 7 0;
#X connect 2 0 3 0;
#X connect 2 0 6 0;
#X connect 3 0 2 1;
#X connect 4 0 2 0;
#X connect 5 0 2 0;
#X connect 6 0 1 0;
#X connect 7 0 10 0;
#X connect 8 0 5 0;
#X connect 8 0 11 0;
#X connect 9 0 0 0;
#X connect 11 0 1 1;
#X restore 672 262 pd timer2;
#X obj 989 91 route /Clock;
#X obj 989 125 bng 15 250 50 0 empty empty empty 17 7 0 10 -159808
-1 -1;
#X obj 989 149 tgl 15 0 empty empty empty 17 7 0 10 -4034 -1 -1 0 63
;
#X obj 989 201 bng 15 250 50 0 empty empty empty 17 7 0 10 -159808
-1 -1;
#X obj 989 173 metro 1000;
#X obj 989 252 s clock;
#X obj 533 328 r clock;
#X msg 989 224 120;
#X obj 1143 90 route /Cloud;
#X obj 1356 92 route /Apps;
#X obj 1356 196 bng 15 250 50 0 empty empty empty 17 7 0 10 -159808
-1 -1;
#X obj 1356 247 s apps;
#X obj 418 329 r apps;
#X msg 1356 219 50;
#X obj 182 367 hip~ 200;
#X obj 183 334 *~ 0.1;
#X obj 1143 174 sel 1;
#X obj 1143 144 tgl 15 0 empty empty empty 17 7 0 10 -4034 -1 -1 0
1;
#X obj 1193 270 bng 15 250 50 0 empty empty empty 17 7 0 10 -159808
-1 -1;
#X msg 1193 306 0.5 100;
#X obj 1265 342 bng 15 250 50 0 empty empty empty 17 7 0 10 -159808
-1 -1;
#X obj 1143 397 line;
#X floatatom 1143 426 5 0 0 0 - - -;
#X obj 1147 457 *~;
#X obj 1065 303 noise~;
#X obj 1146 487 *~ -1;
#X obj 1143 204 bng 15 250 50 0 empty empty empty 17 7 0 10 -159808
-1 -1;
#X obj 1066 342 *~ 0.15;
#X msg 1143 235 1 30;
#X msg 1265 370 0 300;
#X obj 1065 375 hip~ 6000;
#X obj 1147 527 dac~;
#X obj 1265 307 delay 2000;
#X obj 1193 236 delay 20;
#X obj 1143 118 bng 15 250 50 0 empty empty empty 17 7 0 10 -159808
-1 -1;
#X obj 591 177 sel 1;
#X obj 591 147 tgl 15 0 empty empty empty 17 7 0 10 -4034 -1 -1 0 1
;
#X obj 591 121 bng 15 250 50 0 empty empty empty 17 7 0 10 -159808
-1 -1;
#X obj 1356 172 sel 1;
#X obj 1356 142 tgl 15 0 empty empty empty 17 7 0 10 -4034 -1 -1 0
1;
#X obj 1356 116 bng 15 250 50 0 empty empty empty 17 7 0 10 -159808
-1 -1;
#X connect 1 0 0 0;
#X connect 1 0 9 0;
#X connect 1 0 10 0;
#X connect 1 0 20 0;
#X connect 1 0 47 0;
#X connect 1 0 97 0;
#X connect 1 0 99 0;
#X connect 1 0 107 0;
#X connect 1 0 108 0;
#X connect 3 0 4 0;
#X connect 4 0 5 0;
#X connect 4 0 5 1;
#X connect 6 0 11 0;
#X connect 7 0 12 0;
#X connect 8 0 11 0;
#X connect 9 0 8 0;
#X connect 9 0 7 0;
#X connect 10 0 6 0;
#X connect 11 0 39 0;
#X connect 12 0 17 0;
#X connect 13 0 14 0;
#X connect 14 0 15 0;
#X connect 14 0 16 0;
#X connect 15 0 14 1;
#X connect 16 0 19 0;
#X connect 17 0 13 0;
#X connect 18 0 4 1;
#X connect 19 0 6 0;
#X connect 19 1 8 0;
#X connect 20 0 21 0;
#X connect 21 0 22 0;
#X connect 21 0 38 0;
#X connect 22 0 23 0;
#X connect 22 0 38 1;
#X connect 23 0 34 0;
#X connect 24 0 25 0;
#X connect 25 0 27 0;
#X connect 25 0 26 0;
#X connect 26 0 29 0;
#X connect 27 0 28 0;
#X connect 28 0 36 0;
#X connect 29 0 30 0;
#X connect 30 0 31 1;
#X connect 31 0 33 0;
#X connect 32 0 114 0;
#X connect 33 0 37 0;
#X connect 33 0 37 1;
#X connect 34 0 24 0;
#X connect 34 0 35 0;
#X connect 35 0 29 0;
#X connect 36 0 29 0;
#X connect 38 0 21 0;
#X connect 39 0 3 0;
#X connect 40 0 41 0;
#X connect 40 0 41 1;
#X connect 42 0 40 0;
#X connect 43 0 48 0;
#X connect 44 0 42 0;
#X connect 45 0 42 0;
#X connect 46 0 42 0;
#X connect 47 0 43 0;
#X connect 48 0 54 0;
#X connect 49 0 50 0;
#X connect 50 0 51 0;
#X connect 50 0 53 0;
#X connect 51 0 50 1;
#X connect 52 0 44 0;
#X connect 52 1 55 0;
#X connect 52 2 45 0;
#X connect 52 3 46 0;
#X connect 53 0 52 0;
#X connect 54 0 49 0;
#X connect 55 0 42 0;
#X connect 56 0 61 0;
#X connect 56 0 72 0;
#X connect 56 0 71 0;
#X connect 57 0 59 0;
#X connect 57 0 63 0;
#X connect 57 0 98 1;
#X connect 58 0 57 0;
#X connect 58 0 98 0;
#X connect 59 0 56 0;
#X connect 60 0 61 1;
#X connect 61 0 60 0;
#X connect 61 0 95 0;
#X connect 62 0 65 0;
#X connect 63 0 64 0;
#X connect 63 1 94 0;
#X connect 64 0 85 1;
#X connect 65 0 66 0;
#X connect 66 0 67 0;
#X connect 67 0 86 0;
#X connect 68 0 70 0;
#X connect 69 0 70 1;
#X connect 71 0 73 0;
#X connect 72 0 74 0;
#X connect 73 0 75 0;
#X connect 74 0 76 0;
#X connect 75 0 77 0;
#X connect 76 0 78 0;
#X connect 77 0 79 0;
#X connect 78 0 80 0;
#X connect 79 0 81 0;
#X connect 80 0 82 0;
#X connect 81 0 83 0;
#X connect 82 0 84 0;
#X connect 83 0 68 1;
#X connect 84 0 69 1;
#X connect 85 0 68 0;
#X connect 85 0 69 0;
#X connect 86 0 85 0;
#X connect 87 0 62 0;
#X connect 88 0 62 0;
#X connect 89 0 62 0;
#X connect 94 0 85 1;
#X connect 95 0 96 0;
#X connect 96 0 87 0;
#X connect 96 1 88 0;
#X connect 96 2 89 0;
#X connect 96 3 90 0;
#X connect 96 4 91 0;
#X connect 96 5 92 0;
#X connect 96 6 93 0;
#X connect 97 0 136 0;
#X connect 98 0 58 0;
#X connect 99 0 100 0;
#X connect 100 0 101 0;
#X connect 101 0 103 0;
#X connect 102 0 106 0;
#X connect 103 0 102 0;
#X connect 105 0 42 0;
#X connect 106 0 104 0;
#X connect 107 0 133 0;
#X connect 108 0 139 0;
#X connect 109 0 112 0;
#X connect 111 0 42 0;
#X connect 112 0 110 0;
#X connect 113 0 31 0;
#X connect 114 0 113 0;
#X connect 115 0 125 0;
#X connect 116 0 115 0;
#X connect 117 0 118 0;
#X connect 117 0 131 0;
#X connect 118 0 120 0;
#X connect 119 0 128 0;
#X connect 120 0 121 0;
#X connect 121 0 122 1;
#X connect 122 0 124 0;
#X connect 123 0 126 0;
#X connect 124 0 130 0;
#X connect 124 0 130 1;
#X connect 125 0 127 0;
#X connect 125 0 132 0;
#X connect 126 0 129 0;
#X connect 127 0 120 0;
#X connect 128 0 120 0;
#X connect 129 0 122 0;
#X connect 131 0 119 0;
#X connect 132 0 117 0;
#X connect 133 0 116 0;
#X connect 134 0 58 0;
#X connect 135 0 134 0;
#X connect 136 0 135 0;
#X connect 137 0 109 0;
#X connect 138 0 137 0;
#X connect 139 0 138 0;
