#N canvas -7 0 681 371 12;
#X obj 95 56 print;
#X obj 66 110 route /numbers;
#X obj 191 71 dumpOSC 8000;
#X text 290 71 Conection to port for processing;
#X obj 180 382 osc~;
#X obj 180 413 *~;
#X obj 181 448 dac~;
#X floatatom 180 322 5 0 0 0 - - -;
#X obj 225 141 bng 15 250 50 0 empty empty empty 17 7 0 10 -159808
-1 -1;
#X floatatom 292 323 5 0 0 0 - - -;
#X obj 292 110 route /mouseY;
#X obj 180 109 route /mouseX;
#X floatatom 180 355 5 0 0 0 - - -;
#X obj 225 164 tgl 15 0 empty empty empty 17 7 0 10 -4034 -1 -1 0 63
;
#X obj 225 216 bng 15 250 50 0 empty empty empty 17 7 0 10 -159808
-1 -1;
#X obj 225 238 f;
#X obj 263 239 + 1;
#X obj 225 262 mod 2;
#X obj 225 188 metro 50;
#N canvas 423 19 384 231 on/off 0;
#X obj 41 112 outlet;
#X obj 41 53 sel 1;
#X msg 41 80 0.25;
#X msg 73 80 0;
#X obj 41 -64 key;
#X floatatom 41 -11 5 0 0 0 - - -;
#X obj 80 -37 bng 15 250 50 0 empty empty empty 17 7 0 10 -159808 -1
-1;
#X obj 41 20 ==;
#X msg 80 -11 109;
#X connect 1 0 2 0;
#X connect 1 1 3 0;
#X connect 2 0 0 0;
#X connect 3 0 0 0;
#X connect 4 0 5 0;
#X connect 4 0 6 0;
#X connect 5 0 7 0;
#X connect 6 0 8 0;
#X connect 7 0 1 0;
#X connect 8 0 7 1;
#X restore 230 384 pd on/off;
#X obj 225 286 sel 0 1;
#X obj 412 109 route /Bubbles;
#X obj 412 136 bng 15 250 50 0 empty empty empty 17 7 0 10 -159808
-1 -1;
#X obj 412 159 tgl 15 0 empty empty empty 17 7 0 10 -4034 -1 -1 0 63
;
#X obj 412 183 metro 200;
#X obj 462 246 delay 5;
#X obj 462 280 bng 15 250 50 0 empty empty empty 17 7 0 10 -159808
-1 -1;
#X msg 462 316 0.5 100;
#X obj 534 317 delay 100;
#X obj 534 352 bng 15 250 50 0 empty empty empty 17 7 0 10 -159808
-1 -1;
#X obj 412 407 line;
#X floatatom 412 436 5 0 0 0 - - -;
#X obj 416 467 *~;
#X obj 334 313 noise~;
#X obj 415 497 *~ -1;
#X obj 412 214 bng 15 250 50 0 empty empty empty 17 7 0 10 -159808
-1 -1;
#X obj 335 352 *~ 0.15;
#X msg 412 245 1 5;
#X msg 534 380 0 150;
#X obj 334 385 hip~ 200;
#X obj 415 532 dac~;
#N canvas 772 106 450 300 timer 0;
#X msg 173 65 15;
#X obj 91 65 metro 1000;
#X obj 91 166 ==;
#X obj 91 112 f;
#X obj 130 112 + 1;
#X obj 91 91 bng 15 250 50 0 empty empty empty 17 7 0 10 -159808 -1
-1;
#X msg 56 65 0;
#X floatatom 91 139 5 0 0 0 - - -;
#X obj 91 195 sel 1;
#X obj 56 31 inlet;
#X obj 91 32 inlet;
#X obj 91 226 outlet;
#X connect 0 0 2 1;
#X connect 1 0 5 0;
#X connect 2 0 8 0;
#X connect 3 0 4 0;
#X connect 3 0 7 0;
#X connect 4 0 3 1;
#X connect 5 0 3 0;
#X connect 6 0 3 0;
#X connect 7 0 2 0;
#X connect 8 0 11 0;
#X connect 9 0 6 0;
#X connect 9 0 0 0;
#X connect 10 0 1 0;
#X restore 491 183 pd timer;
#X connect 2 0 1 0;
#X connect 2 0 0 0;
#X connect 2 0 10 0;
#X connect 2 0 11 0;
#X connect 2 0 21 0;
#X connect 4 0 5 0;
#X connect 5 0 6 0;
#X connect 5 0 6 1;
#X connect 7 0 12 0;
#X connect 8 0 13 0;
#X connect 9 0 12 0;
#X connect 10 0 9 0;
#X connect 10 0 8 0;
#X connect 11 0 7 0;
#X connect 12 0 4 0;
#X connect 13 0 18 0;
#X connect 14 0 15 0;
#X connect 15 0 16 0;
#X connect 15 0 17 0;
#X connect 16 0 15 1;
#X connect 17 0 20 0;
#X connect 18 0 14 0;
#X connect 19 0 5 1;
#X connect 20 0 7 0;
#X connect 20 1 9 0;
#X connect 21 0 22 0;
#X connect 22 0 23 0;
#X connect 22 0 41 0;
#X connect 23 0 24 0;
#X connect 23 0 41 1;
#X connect 24 0 35 0;
#X connect 25 0 26 0;
#X connect 26 0 28 0;
#X connect 26 0 27 0;
#X connect 27 0 30 0;
#X connect 28 0 29 0;
#X connect 29 0 38 0;
#X connect 30 0 31 0;
#X connect 31 0 32 1;
#X connect 32 0 34 0;
#X connect 33 0 36 0;
#X connect 34 0 40 0;
#X connect 34 0 40 1;
#X connect 35 0 25 0;
#X connect 35 0 37 0;
#X connect 36 0 39 0;
#X connect 37 0 30 0;
#X connect 38 0 30 0;
#X connect 39 0 32 0;
#X connect 41 0 22 0;
